<?xml version="1.0" encoding="UTF-8"?>
<svg width="11px" height="11px" viewBox="0 0 11 11" version="1.1" xmlns="http://www.w3.org/2000/svg" xmlns:xlink="http://www.w3.org/1999/xlink">
    <!-- Generator: Sketch 61.2 (89653) - https://sketch.com -->
    <title>编组</title>
    <desc>Created with Sketch.</desc>
    <g id="5.12" stroke="none" stroke-width="1" fill="none" fill-rule="evenodd">
        <g id="商品详情" transform="translate(-274.000000, -617.000000)" fill="#AD8542" fill-rule="nonzero">
            <g id="编组" transform="translate(274.000000, 617.000000)">
                <path d="M5.49989556,0 C6.25534987,0 6.96842592,0.144136108 7.63812335,0.431869632 C8.30777679,0.720009912 8.89167335,1.11341321 9.38980204,1.61177167 C9.88772185,2.1020499 10.2805919,2.68232112 10.5685223,3.35283817 C10.8561008,4.02352014 11,4.73720878 11,5.49362925 C11,6.25884454 10.8559359,6.97459996 10.5685223,7.64070862 C10.2806029,8.30699318 9.88772185,8.88946311 9.38980204,9.38809641 C8.89167335,9.88676269 8.3077768,10.280166 7.63812335,10.5681304 C6.96842592,10.8562706 6.25536087,11 5.49989556,11 C4.74426537,11 4.0315301,10.8562707 3.36170076,10.5681304 C2.69200334,10.280155 2.10794189,9.8867517 1.61002207,9.38809641 C1.11189339,8.88946311 0.719056271,8.30699317 0.431477734,7.64070862 C0.143723308,6.97459996 0,6.25884454 0,5.49362925 C0,4.73720879 0.143723308,4.02352015 0.431477734,3.35283817 C0.719056271,2.68232111 1.11189339,2.10204989 1.61002207,1.61177167 C2.10794189,1.11341319 2.69200334,0.720009912 3.36170076,0.431869632 C4.0315411,0.144136108 4.74426537,0 5.49989556,0 Z M7.18733079,5.09376178 C7.26456805,5.00802328 7.33548431,4.91775545 7.39990365,4.82294729 C7.464323,4.72841397 7.51781525,4.62947224 7.56088608,4.52645192 C7.60361611,4.42311279 7.63812333,4.31359529 7.66391307,4.19747069 C7.68972478,4.08137908 7.70255368,3.96347352 7.70255368,3.84284157 C7.70255368,3.54219066 7.64463124,3.25830487 7.52857746,2.99175586 C7.41273256,2.7254817 7.25604843,2.49326548 7.05850308,2.2952501 C6.86081483,2.0891325 6.62702535,1.93017713 6.35653002,1.8181751 C6.08603471,1.70672274 5.80047889,1.65065576 5.50008244,1.65065576 C5.19933422,1.65065576 4.91398727,1.70659082 4.64349196,1.8181751 C4.37296366,1.93017713 4.13886637,2.0891325 3.9415189,2.2952501 C3.74379766,2.49325448 3.58728941,2.7254707 3.47123565,2.99175586 C3.35522585,3.25831586 3.2974683,3.54219066 3.2974683,3.84284157 L4.40509639,3.84284157 C4.40509639,3.69678161 4.43294182,3.55717483 4.48883055,3.42375741 C4.5445214,3.29061484 4.62416615,3.1721596 4.72718215,3.06909531 C4.82150263,2.96593208 4.93532481,2.88662479 5.0684618,2.83055781 C5.20156581,2.77466672 5.34545402,2.74674318 5.50007146,2.74674318 C5.65455697,2.74674318 5.79826929,2.77479865 5.93154919,2.83055781 C6.06451029,2.88662479 6.1782885,2.96593208 6.27278487,3.06909531 C6.37584485,3.17215961 6.45510483,3.29061484 6.51100455,3.42375741 C6.56686031,3.55717483 6.5949146,3.6967706 6.5949146,3.84284157 C6.5949146,3.92032394 6.5884177,3.99564058 6.5754239,4.06859361 C6.56260599,4.14171155 6.54328019,4.20847522 6.51750145,4.26838993 C6.48315912,4.33738529 6.4465852,4.40193927 6.40794458,4.46186498 C6.36951283,4.52219744 6.32440829,4.57383403 6.27278486,4.61658784 L5.59013762,5.3130826 C5.49546535,5.41627882 5.40764177,5.52590625 5.3261392,5.64188793 C5.24446074,5.75783663 5.17798568,5.88496576 5.12656014,6.02223092 C5.06623021,6.15125093 5.02130155,6.28658122 4.99122453,6.4285296 C4.96097162,6.57033508 4.94608701,6.71873667 4.94608701,6.87332762 L4.94608701,7.14428503 L6.053891,7.14428503 C6.053891,6.93789259 6.06877561,6.75954464 6.09902851,6.60907626 C6.12892964,6.45878379 6.16976887,6.32753209 6.22119443,6.21570596 C6.28134847,6.09545879 6.35003313,5.98583135 6.42744628,5.88690063 C6.50468354,5.78810182 6.5949256,5.6913698 6.6979416,5.59683648 L7.18733079,5.09376178 L7.18733079,5.09376178 Z M6.053891,9.34948715 L6.053891,8.25315789 L4.94608701,8.25315789 L4.94608701,9.34948715 L6.053891,9.34948715 Z" id="形状"></path>
            </g>
        </g>
    </g>
</svg>