<?xml version="1.0" encoding="UTF-8"?>
<svg width="18px" height="18px" viewBox="0 0 18 18" version="1.1" xmlns="http://www.w3.org/2000/svg" xmlns:xlink="http://www.w3.org/1999/xlink">
    <!-- Generator: Sketch 61.2 (89653) - https://sketch.com -->
    <title>形状</title>
    <desc>Created with Sketch.</desc>
    <g id="页面-1" stroke="none" stroke-width="1" fill="none" fill-rule="evenodd">
        <g id="商品详情" transform="translate(-275.000000, -268.000000)" fill="#12182B" stroke="#0C1225">
            <path d="M289.505882,268.5 L278.494118,268.5 C276.864378,268.5 275.5,269.864378 275.5,271.494118 L275.5,282.505882 C275.5,284.169186 276.844822,285.5 278.494118,285.5 L289.505882,285.5 C291.155178,285.5 292.5,284.169186 292.5,282.505882 L292.5,271.494118 C292.5,269.844822 291.169186,268.5 289.505882,268.5 Z M278.130214,275.90498 C277.958374,275.514545 278.052828,275.093055 278.3737,274.773354 L280.258211,273.099388 C280.659091,272.698508 281.316172,272.698508 281.788881,273.077359 L283.394361,274.488235 L288.711765,274.488235 C289.305554,274.488235 289.741176,274.923858 289.741176,275.517647 C289.741176,276.111436 289.305554,276.547059 288.711765,276.547059 L279.129412,276.547059 C278.66429,276.547059 278.263211,276.328555 278.130214,275.90498 Z M283.394361,274.488235 L283.53594,274.612653 L283.205882,274.488235 L283.394361,274.488235 Z M284.605639,279.511765 L279.288235,279.511765 C278.694446,279.511765 278.258824,279.076142 278.258824,278.482353 C278.258824,277.888564 278.694446,277.452941 279.288235,277.452941 L288.870588,277.452941 C289.335704,277.452941 289.73678,277.67144 289.869781,278.095005 C290.041662,278.485414 289.94802,278.906145 289.647671,279.206495 L289.6263,279.226646 L287.741789,280.900612 C287.340909,281.301492 286.683828,281.301492 286.211119,280.922641 L284.605639,279.511765 Z" id="形状"></path>
        </g>
    </g>
</svg>