<svg height="20" viewBox="0 0 20 20" width="20" xmlns="http://www.w3.org/2000/svg"><path d="m10.00006 0c-5.52284064 0-10.00000004 4.47715939-10.00000004 10 0 5.5228406 4.4771594 10 10.00000004 10 5.5228406 0 10-4.4771594 10-10 0-5.52284061-4.4771594-10-10-10zm4.6340405 12.866594c.4882724.4882724.4882724 1.2792941 0 1.7675865-.2441462.2441462-.5639647.3662092-.8837832.3662092s-.639657-.1220631-.8837832-.3662092l-2.8662193-2.8662143-2.86620929 2.8661943c-.24414619.2441462-.56396471.3662292-.88378321.3662292-.31981849 0-.63965701-.122083-.88378322-.3662292-.48827238-.4882724-.48827238-1.2792941 0-1.7675864l2.86621428-2.8662068-2.86623426-2.86620183c-.48827238-.48827238-.48827238-1.27929404 0-1.76758641.48827238-.48829236 1.27929404-.48827238 1.76758641 0l2.86620929 2.86621428 2.8662193-2.86621428c.4882724-.48827238 1.279294-.48827238 1.7675864 0 .4882924.48827239.4882724 1.27929405 0 1.76758641l-2.8662343 2.86621433z" opacity=".08"/></svg>