<svg height="15" viewBox="0 0 15 15" width="15" xmlns="http://www.w3.org/2000/svg"><path d="m17.5056316 210.512321c.2781181.00077.5041907-.229264.5049471-.5138 0-.000001 0-.000003 0-.000004v-1.1298c0-.1372.1252105-.249899.2606841-.249899h10.472518c.1354736 0 .2305788.112.2305788.249899v1.1298c0 .2835.2257894.513804.5049471.513804.2781167.001157.5044941-.228564.5056287-.513097.0000009-.000236.0000017-.000471.0000023-.000706v-1.1298c0-.0084.0068421-.0182.0068421-.0266v-.000001c-.0137889-.694906-.5686268-1.250723-1.2479993-1.250199h-10.472518c-.6842102 0-1.2493678.5586-1.263052 1.250199 0 .0084-.0082105.0182-.0082105.0266v1.1298c0 .2835.2257894.513804.5056313.513804zm12.4854723 9.760097c.0006842-.0105-.0068421-.0245-.0068421-.035v-1.130499c-.001131-.284264-.2270936-.513875-.5049457-.513105-.2778535-.000771-.5038152.22884-.5049471.513104v1.1305c0 .0105.0075263.021.0082105.0315 0 .0105.0027368.028.0027368.0392.0019167.138883-.1058045.25346-.2415261.2569h-10.472518c-.1365387-.003046-.2456636-.117177-.2456315-.2569 0-.0105-.0075263-.0252-.0082105-.035 0-.0112-.0068421-.0252-.0068421-.0364v-1.1298.000001c-.001131-.284264-.2270936-.513875-.5049458-.513105h.0000001c-.2781168-.001158-.5044954.228561-.5056314.513096v.000008 1.1305c0 .0105.0082105.021.0088948.0315-.0006843.0105.0027368.028.0027368.0392-.0000009.704199.5672089 1.283799 1.2596296 1.283799h10.4725179.0000001c.6926291-.001536 1.2539527-.575189 1.2562098-1.283799 0-.0105-.0082105-.0245-.0088947-.035zm-12.3472538-5.685392c0 .5075.4043682.918399.9031574.918399.4994734 0 .9045258-.410899.9045258-.918399s-.4050524-.9184-.9038416-.9184c-.4994734 0-.9038416.4109-.9038416.9184zm3.3047351 0c0 .5075.403684.918399.9031574.918399s.9045258-.410899.9045258-.918399-.4050524-.9184-.9045258-.9184-.9031574.4109-.9031574.9184zm3.3040535 0c0 .5075.4043682.918399.9038416.918399s.9038416-.410899.9038416-.918399-.4043682-.9184-.9031574-.9184c-.4994734 0-.9045258.4109-.9045258.9184zm3.304735 0c0 .5075.4043683.918399.9031575.918399.4994734 0 .9045258-.410899.9045258-.918399v.000006c-.0003328-.328713-.1726174-.632098-.4515734-.795202h.0000001c-.28016-.164161-.6243658-.164161-.9045259 0h.0000001c-.2789573.163101-.4512433.466486-.4515842.795199z" fill="#bcbcbc" stroke="#bcbcbc" stroke-width=".3" transform="translate(-16 -207)"/></svg>