<svg height="16" viewBox="0 0 15 16" width="15" xmlns="http://www.w3.org/2000/svg"><path d="m.50563165 2.92040393h-.00000002c.27811806.00076958.50419072-.22926416.50494709-.51380037 0-.00000127.00000001-.00000254.00000001-.00000381v-1.12979955c0-.13719994.12521046-.2498999.26068407-.2498999h10.472518c.1354736 0 .2305788.11199996.2305788.2498999v1.12979955c0 .28349989.2257894.51380418.5049471.51380418.2781167.00115645.5044941-.22856386.5056287-.51309734.0000009-.00023539.0000017-.00047079.0000023-.00070618v-1.12979955c0-.0084.0068421-.01819999.0068421-.02659999v-.00000063c-.0137889-.69490695-.5686268-1.25072313-1.2479993-1.25019987h-10.47251803c-.68421015 0-1.24936774.55860015-1.26305195 1.25019987 0 .0084-.00821052.01819999-.00821052.02659999v1.12979955c0 .28349988.22578935.51380415.50563131.51380415zm12.48547225 9.76009687c.0006842-.0105-.0068421-.0245-.0068421-.035v-1.1304995.0000009c-.001131-.2842642-.2270936-.513875-.5049457-.5131057-.2778535-.0007703-.5038152.2288402-.5049471.5131043v1.1304996c0 .0105.0075263.021.0082105.0315 0 .0104999.0027368.0279999.0027368.0391999v.0000003c.0019167.138883-.1058045.2534601-.2415261.2568999h-10.47251803-.00000001c-.13653868-.0030457-.24566352-.1171765-.24563144-.2568999 0-.0105-.00752632-.0252-.00821053-.035 0-.0112-.0068421-.0252-.0068421-.0363999v-1.1297996l.00000001.0000009c-.00113105-.2842641-.22709363-.513875-.50494576-.5131055h.00000002c-.27811673-.0011578-.50449541.2285611-.50563134.5130959v.0000086 1.1304995c0 .0105.00821052.021.00889473.0315-.00068421.0105.00273685.028.00273685.0392-.00000088.7041997.56720888 1.2837995 1.25962956 1.2837995h10.47251794.0000001c.6926291-.0015367 1.2539527-.5751892 1.2562098-1.2837995 0-.0105-.0082105-.0245-.0088947-.035zm-12.34725378-5.68539224c0 .5074998.4043682.91839963.9031574.91839963.49947342 0 .90452583-.41089983.90452583-.91839963s-.40505241-.91839963-.90384162-.91839963c-.49947341 0-.90384161.41089983-.90384161.91839963zm3.30473505 0c0 .5074998.40368399.91839963.90315741.91839963.49947341 0 .90452583-.41089983.90452583-.91839963s-.40505242-.91839963-.90452583-.91839963c-.49947342 0-.90315741.41089983-.90315741.91839963zm3.30405352 0c0 .5074998.4043682.91839963.90384162.91839963.49947341 0 .90384162-.41089983.90384162-.91839963s-.40436821-.91839963-.90315741-.91839963c-.49947342 0-.90452583.41089983-.90452583.91839963zm3.30473501 0c0 .5074998.4043683.91839963.9031575.91839963.4994734 0 .9045258-.41089983.9045258-.91839963v.00000622c-.0003328-.32871276-.1726174-.63209838-.4515734-.79520242l.0000001.00000003c-.28016-.16416087-.6243658-.16416087-.9045259-.00000009l.0000001-.00000001c-.2789573.1631013-.4512433.46648692-.4515842.79519968z" fill="#bcbcbc" stroke="#bcbcbc" stroke-width=".3" transform="translate(1 1)"/></svg>