<svg height="19" viewBox="0 0 12 19" width="12" xmlns="http://www.w3.org/2000/svg"><g fill="#bcbcbc" fill-rule="evenodd"><path d="m10.2988966 0h-9.01117246c-.708 0-1.28772414.57931035-1.28772414 1.28731034v15.44855176c0 .708.57972414 1.2868965 1.28772414 1.2868965h9.01117246c.7084137 0 1.2873103-.5788965 1.2873103-1.2868965v-15.44855176c0-.70799999-.5788966-1.28731034-1.2873103-1.28731034m-.002069 1.28731034.002069.00206897v15.44441379l-.002069.002069h-9.0070345l-.00206896-.002069v-15.44441379l.00206896-.00206897z"/><path d="m5.54910585 14.8046069c-.35379311 0-.64303449.2896552-.64303449.6438621 0 .3537931.28924138.6434482.64303449.6434482h.48807796c.3537931 0 .64386207-.2896551.64386207-.6434482 0-.3542069-.29006897-.6438621-.64386207-.6438621zm-5.54885757-.6438621h11.58620692v-1.2873103h-11.58620692z"/></g></svg>