<svg height="19" viewBox="0 0 12 19" width="12" xmlns="http://www.w3.org/2000/svg"><path d="m5.54910585 14.8046069c-.35379311 0-.64303449.2896552-.64303449.6438621 0 .3537931.28924138.6434482.64303449.6434482h.48807796c.3537931 0 .64386207-.2896551.64386207-.6434482 0-.3542069-.29006897-.6438621-.64386207-.6438621zm6.03710105 1.9312552c0 .708-.5788966 1.2868965-1.2873103 1.2868965h-9.01117246c-.708 0-1.28772414-.5788965-1.28772414-1.2868965v-15.44855176c0-.70799999.57972414-1.28731034 1.28772414-1.28731034h9.01117246c.7084137 0 1.2873103.57931035 1.2873103 1.28731034zm-1.2882069-2.5758621h-9.011l.00072414 2.5737931.00206896.002069h9.0070345l.002069-.002069zm-.0011724-12.87268966h-9.0070345l-.00206896.00206897-.00072414 11.58362069h9.011l.0008966-11.58362069z" fill="#bcbcbc" fill-rule="evenodd" transform="translate(0 .5)"/></svg>