<?xml version="1.0" encoding="UTF-8"?>
<svg width="30px" height="30px" viewBox="0 0 30 30" version="1.1" xmlns="http://www.w3.org/2000/svg" xmlns:xlink="http://www.w3.org/1999/xlink">
    <!-- Generator: Sketch 64 (93537) - https://sketch.com -->
    <title>卡券包</title>
    <desc>Created with Sketch.</desc>
    <defs>
        <radialGradient cx="80.5062418%" cy="80.3888705%" fx="80.5062418%" fy="80.3888705%" r="119.70507%" id="radialGradient-1">
            <stop stop-color="#A67C38" offset="0%"></stop>
            <stop stop-color="#EAD195" offset="100%"></stop>
        </radialGradient>
    </defs>
    <g id="卡券包" stroke="none" stroke-width="1" fill="none" fill-rule="evenodd">
        <path d="M31.1106832,10.5802298 L28.4430948,7.76914466 C28.1908112,7.51548165 27.9343919,7.38657094 27.5538986,7.38657094 C27.3016151,7.38657094 26.9169861,7.51548165 26.6647025,7.76914466 C26.1559996,8.28062909 25.3950131,8.66320281 24.6340267,8.66320281 C23.8730402,8.66320281 23.1079179,8.28062909 22.6033508,7.76914466 C22.0946479,7.25766023 21.7141547,6.49251279 21.7141547,5.59845465 C21.7141547,4.83330721 22.0946479,4.06400136 22.6033508,3.55667534 C23.1120537,3.04934933 23.1120537,2.28004348 22.6033508,1.76855905 L19.9357624,-1.0425261 C18.666073,-2.31915797 16.5071875,-2.31915797 15.2333623,-1.0425261 L-0.982617638,14.6261631 C-1.61953022,15.2665582 -2.00002346,16.0317057 -2.00002346,16.9257638 C-2.00002346,17.8198219 -1.61953022,18.7138801 -1.11082731,19.3542752 L1.55676111,22.1653604 C1.80904466,22.4190234 2.06546402,22.5479341 2.44595725,22.5479341 C2.82645048,22.5479341 3.08286983,22.4190234 3.33515339,22.1653604 C3.8438563,21.653876 4.60484276,21.2713022 5.4940389,21.2713022 C6.25502537,21.2713022 7.02014763,21.653876 7.52471474,22.1653604 C8.02928185,22.6768448 8.41391088,23.4419922 8.41391088,24.3360504 C8.41391088,25.1011978 8.03341765,25.8705037 7.52471474,26.3778297 C7.01601183,26.8893141 7.01601183,27.6544616 7.52471474,28.165946 L10.1923032,30.9770311 C10.8292157,31.6174263 11.7184119,32 12.607608,32 C13.4968042,32 14.2577906,31.746337 14.8947032,31.1059419 L30.9824735,15.3041836 C31.6193861,14.6637884 31.9999765,13.898641 31.9999765,13.0045828 C32.0040151,11.981614 31.7475958,11.2164665 31.1106832,10.5802298 Z M8.90583253,17.8407138 C8.5253393,17.8407138 8.26891995,17.7118031 8.01663639,17.4581401 C7.50793348,16.9466557 7.50793348,16.1815082 8.01663639,15.6700238 L15.0019958,8.51755863 C15.5106988,8.0060742 16.2716852,8.0060742 16.7803881,8.51755863 C17.289091,9.02904306 17.289091,9.7941905 16.7803881,10.3056749 L9.79502867,17.4581401 C9.53860932,17.7118031 9.15811609,17.8407138 8.90583253,17.8407138 Z M20.593592,14.1355705 L13.6082326,21.2880357 C13.355949,21.5416987 12.97132,21.6706094 12.7190364,21.6706094 C12.4667529,21.6706094 12.0821239,21.5416987 11.8298403,21.2880357 C11.3211374,20.7765513 11.3211374,20.0114038 11.8298403,19.4999194 L18.8151998,12.3474542 C19.3239027,11.8359698 20.0848891,11.8359698 20.593592,12.3474542 C21.1022949,12.8589387 21.1022949,13.6240861 20.593592,14.1355705 Z" id="形状" fill="url(#radialGradient-1)" transform="translate(15.000000, 15.000000) rotate(-315.000000) translate(-15.000000, -15.000000) "></path>
    </g>
</svg>