<svg height="14" viewBox="0 0 23 14" width="23" xmlns="http://www.w3.org/2000/svg" xmlns:xlink="http://www.w3.org/1999/xlink"><radialGradient id="a" cx="80.506242%" cy="80.388871%" gradientTransform="matrix(-.67168125 -.54320275 .4345622 -.83960156 .996467 1.916147)" r="138.572582%"><stop offset="0" stop-color="#a67c38"/><stop offset="1" stop-color="#ead195"/></radialGradient><g fill="none"><path d="m14 0h9v10c0 2.209139-1.790861 4-4 4h-19c0-7.7319865 6.2680135-14 14-14z" fill="#12182b"/><path d="m11.7501322 11c-.2617263 0-.5130373-.0937489-.7000482-.2611656l-2.75017435-2.46485406c-.39427118-.3532433-.40067713-.93248228-.01403114-1.29298068.3872556-.36048928 1.02017617-.36662962 1.41414754-.01283807l1.94940975 1.74721983 4.5610216-5.36220027c.3387362-.39843695.9673795-.47098802 1.4034642-.1601606.435775.30971266.5145153.88449258.1754693 1.28292953l-5.2497869 6.17135482c-.1751694.2059208-.4379136.3331502-.7223341.3510047-.0225858.001133-.0448617.0016904-.0671377.0016904z" fill="url(#a)"/></g></svg>