<?xml version="1.0" encoding="UTF-8"?>
<svg width="38px" height="38px" viewBox="0 0 38 38" version="1.1" xmlns="http://www.w3.org/2000/svg" xmlns:xlink="http://www.w3.org/1999/xlink">
    <!-- Generator: Sketch 64 (93537) - https://sketch.com -->
    <title>形状</title>
    <desc>Created with Sketch.</desc>
    <defs>
        <filter x="-8.2%" y="-66.2%" width="120.7%" height="222.1%" filterUnits="objectBoundingBox" id="filter-1">
            <feOffset dx="0" dy="-4" in="SourceAlpha" result="shadowOffsetOuter1"></feOffset>
            <feGaussianBlur stdDeviation="6" in="shadowOffsetOuter1" result="shadowBlurOuter1"></feGaussianBlur>
            <feColorMatrix values="0 0 0 0 0   0 0 0 0 0   0 0 0 0 0  0 0 0 0.16 0" type="matrix" in="shadowBlurOuter1" result="shadowMatrixOuter1"></feColorMatrix>
            <feMerge>
                <feMergeNode in="shadowMatrixOuter1"></feMergeNode>
                <feMergeNode in="SourceGraphic"></feMergeNode>
            </feMerge>
        </filter>
    </defs>
    <g id="页面-1" stroke="none" stroke-width="1" fill="none" fill-rule="evenodd">
        <g id="活动详情页状态" transform="translate(-337.000000, -1493.000000)" fill="#000000" fill-rule="nonzero">
            <g id="编组-5备份-3" filter="url(#filter-1)" transform="translate(22.000000, 1485.000000)">
                <g id="编组-2">
                    <path d="M333.999867,24 C334.961354,24 335.868906,24.183446 336.721248,24.5496523 C337.573534,24.9163763 338.316675,25.4170714 338.950657,26.0513458 C339.584373,26.6753362 340.08439,27.4138632 340.450847,28.2672486 C340.816856,29.1208438 341,30.0291748 341,30.9918918 C341,31.9658021 340.816646,32.8767636 340.450847,33.7245382 C340.084404,34.5725368 339.584373,35.3138621 338.950657,35.9484863 C338.316675,36.5831525 337.573534,37.0838476 336.721248,37.4503477 C335.868906,37.8170717 334.961368,38 333.999867,38 C333.038156,38 332.131038,37.8170717 331.278528,37.4503477 C330.426186,37.0838336 329.682835,36.5831385 329.049119,35.9484863 C328.415137,35.3138621 327.915163,34.5725368 327.549153,33.7245382 C327.182921,32.8767636 327,31.9658021 327,30.9918918 C327,30.0291748 327.182921,29.1208438 327.549153,28.2672486 C327.915163,27.4138632 328.415137,26.6753362 329.049119,26.0513458 C329.682835,25.4170713 330.426186,24.9163763 331.278528,24.5496523 C332.131052,24.183446 333.038156,24 333.999867,24 Z M336.147512,30.4829695 C336.245814,30.3738478 336.336071,30.2589615 336.418059,30.1382965 C336.500047,30.0179814 336.568128,29.8920556 336.622946,29.7609388 C336.67733,29.6294163 336.721248,29.4900304 336.754071,29.3422354 C336.786922,29.1944825 336.80325,29.0444208 336.80325,28.8908893 C336.80325,28.5082427 336.729531,28.1469335 336.581826,27.8076893 C336.434387,27.4687949 336.234971,27.173247 335.983549,26.9212274 C335.731946,26.6588959 335.434396,26.4565891 335.090129,26.314041 C334.745862,26.1721926 334.382428,26.1008346 334.000105,26.1008346 C333.617334,26.1008346 333.254166,26.1720247 332.909899,26.314041 C332.56559,26.4565891 332.267648,26.6588959 332.016479,26.9212274 C331.764833,27.173233 331.565641,27.4687809 331.417936,27.8076893 C331.270287,28.1469475 331.196778,28.5082427 331.196778,28.8908893 L332.606486,28.8908893 C332.606486,28.7049948 332.641926,28.5273134 332.713057,28.3575094 C332.783936,28.1880552 332.885302,28.037294 333.016414,27.9061213 C333.136458,27.7748226 333.281322,27.6738861 333.45077,27.6025281 C333.620175,27.531394 333.803305,27.495855 334.000091,27.495855 C334.196709,27.495855 334.379615,27.5315619 334.549244,27.6025281 C334.718468,27.6738861 334.863276,27.7748226 334.983544,27.9061213 C335.114712,28.037294 335.215588,28.1880552 335.286733,28.3575094 C335.357822,28.5273134 335.393528,28.7049808 335.393528,28.8908893 C335.393528,28.9895032 335.385259,29.0853607 335.368721,29.17821 C335.352408,29.2712692 335.327811,29.3562412 335.295002,29.4324963 C335.251293,29.5203086 335.204745,29.6024682 335.155566,29.6787372 C335.106653,29.755524 335.049247,29.8212433 334.983544,29.8756572 L334.114721,30.7621051 C333.994229,30.8934458 333.882453,31.0329716 333.778723,31.1805846 C333.674768,31.3281557 333.590164,31.4899564 333.524713,31.6646575 C333.447929,31.8288648 333.390747,32.0011034 333.352468,32.1817649 C333.313964,32.3622446 333.29502,32.5511194 333.29502,32.7478715 L333.29502,33.0927264 L334.704952,33.0927264 C334.704952,32.8300451 334.723896,32.6030568 334.7624,32.4115516 C334.800456,32.2202703 334.852433,32.0532227 334.917884,31.9108985 C334.994444,31.7578566 335.08186,31.6183308 335.180386,31.492419 C335.278688,31.366675 335.393542,31.2435616 335.524653,31.1232464 L336.147512,30.4829695 L336.147512,30.4829695 Z M334.704952,35.8993473 L334.704952,34.5040191 L333.29502,34.5040191 L333.29502,35.8993473 L334.704952,35.8993473 Z" id="形状"></path>
                </g>
            </g>
        </g>
    </g>
</svg>