<?xml version="1.0" encoding="UTF-8"?>
<svg width="34px" height="34px" viewBox="0 0 34 34" version="1.1" xmlns="http://www.w3.org/2000/svg" xmlns:xlink="http://www.w3.org/1999/xlink">
    <!-- Generator: Sketch 60 (88103) - https://sketch.com -->
    <title>矩形</title>
    <desc>Created with Sketch.</desc>
    <defs>
        <radialGradient cx="80.5062418%" cy="80.3888705%" fx="80.5062418%" fy="80.3888705%" r="88.4953871%" gradientTransform="translate(0.805062,0.803889),scale(0.916667,1.000000),rotate(-144.598445),translate(-0.805062,-0.803889)" id="radialGradient-1">
            <stop stop-color="#A67C38" offset="0%"></stop>
            <stop stop-color="#EAD195" offset="100%"></stop>
        </radialGradient>
    </defs>
    <g id="页面-1" stroke="none" stroke-width="1" fill="none" fill-rule="evenodd">
        <g id="订单详情成功-直充" transform="translate(-130.000000, -467.000000)">
            <g id="编组-4备份" transform="translate(10.000000, 150.000000)">
                <path d="M8,0 L347,0 C351.418278,-8.11624501e-16 355,3.581722 355,8 L355,354 C355,358.418278 351.418278,362 347,362 L8,362 C3.581722,362 5.41083001e-16,358.418278 0,354 L0,8 C-5.41083001e-16,3.581722 3.581722,8.11624501e-16 8,0 Z" id="矩形备份-2" fill="#FFFFFF"></path>
                <g id="编组-3" transform="translate(121.000000, 318.000000)">
                    <rect id="矩形" stroke-opacity="0.32" stroke="#FFFFFF" stroke-width="0.5" fill-opacity="0.180998689" fill="#FFFFFF" x="0" y="0" width="32" height="32" rx="16"></rect>
                    <path d="M5.5678392,18.9779006 C4.72361809,18.9779006 4,18.2486188 4,17.2762431 L4,15.0883978 C4,14.2375691 4.60301507,13.6298343 5.32663318,13.5082873 C5.5678392,12.4143646 5.92964824,11.4419889 6.53266331,10.4696133 C7.97989951,7.91712706 10.3919598,6.09392265 13.1658291,5.36464088 C16.0603015,4.63535912 18.8341709,5 21.4874372,6.45856353 C24.0201005,7.91712706 25.8291457,10.3480663 26.5527638,13.1436464 C26.5527638,13.2651934 26.6733668,13.3867403 26.6733668,13.5082873 C27.517588,13.6298343 28,14.359116 28,15.0883978 L28,17.2762431 C28,18.2486188 27.2763819,18.9779006 26.3115578,18.9779006 C25.8291457,18.9779006 25.4673367,18.7348066 25.1055276,18.4917127 C24.7437186,18.2486188 24.3819096,17.7624309 24.5025126,17.2762431 C24.7437186,16.0607735 24.6231156,14.8453039 24.3819096,13.6298343 C23.7788945,11.320442 22.3316583,9.49723758 20.4020101,8.28176797 C18.3517588,7.06629835 16.0603015,6.82320444 13.7688442,7.43093923 C9.18592964,8.64640885 6.29145729,13.5082873 7.61809046,18.2486188 C8.82412062,22.8674033 13.6482412,25.7845304 18.3517588,24.4475138 C18.9547739,24.3259669 19.5577889,24.6906077 19.678392,25.1767956 C19.798995,25.7845304 19.4371859,26.3922652 18.9547739,26.5138121 C17.9899498,26.878453 17.0251256,27 16.0603015,27 C11.2361809,26.878453 6.89447235,23.7182321 5.5678392,18.9779006 L5.5678392,18.9779006 Z M10.5125628,15.3314917 C10.5125628,14.1160221 11.4773869,13.1436464 12.6834171,13.1436464 C13.8894472,13.1436464 14.8542714,14.1160221 14.8542714,15.3314917 C14.8542714,16.5469613 13.8894473,17.519337 12.6834171,17.519337 C11.4773869,17.519337 10.5125628,16.5469613 10.5125628,15.3314917 L10.5125628,15.3314917 Z M17.1457287,15.3314917 C17.1457287,14.1160221 18.1105528,13.1436464 19.3165829,13.1436464 C20.5226131,13.1436464 21.4874372,14.1160221 21.4874372,15.3314917 C21.4874372,16.5469613 20.5226131,17.519337 19.3165829,17.519337 C18.1105528,17.519337 17.1457287,16.5469613 17.1457287,15.3314917 Z" id="Help_icon" fill="url(#radialGradient-1)" fill-rule="nonzero"></path>
                </g>
            </g>
        </g>
    </g>
</svg>