<?xml version="1.0" encoding="UTF-8"?>
<svg width="10px" height="6px" viewBox="0 0 10 6" version="1.1" xmlns="http://www.w3.org/2000/svg" xmlns:xlink="http://www.w3.org/1999/xlink">
    <!-- Generator: Sketch 60 (88103) - https://sketch.com -->
    <title>路径</title>
    <desc>Created with Sketch.</desc>
    <g id="页面-1" stroke="none" stroke-width="1" fill="none" fill-rule="evenodd">
        <g id="订单详情成功-卡密" transform="translate(-221.000000, -626.000000)">
            <g id="编组-4备份-2" transform="translate(10.000000, 511.000000)">
                <path d="M8,0 L347,0 C351.418278,-8.11624501e-16 355,3.581722 355,8 L355,197 C355,201.418278 351.418278,205 347,205 L8,205 C3.581722,205 5.41083001e-16,201.418278 0,197 L0,8 C-5.41083001e-16,3.581722 3.581722,8.11624501e-16 8,0 Z" id="矩形备份-2" fill="#FFFFFF"></path>
                <g id="编组" transform="translate(135.000000, 110.000000)" fill="#000000" fill-opacity="0.4" fill-rule="nonzero">
                    <path d="M85.87456,5.19671153 C86.0617068,5.43298957 86.036596,5.78898517 85.8183039,5.99157621 L81.3391246,10.8640395 C81.1438295,11.0453202 80.8562715,11.0453202 80.6609763,10.8640395 L76.1817548,5.99157621 C75.9633569,5.78898517 75.938299,5.43298957 76.1254881,5.19671153 C76.3126561,4.96102831 76.6411247,4.9332208 76.8598502,5.13578895 L81.000024,9.69371051 L85.1401662,5.13578895 C85.238432,5.04437076 85.3588071,5 85.478844,5 C85.6256826,5 85.7714326,5.06680208 85.87456,5.19671153 Z" id="路径"></path>
                </g>
            </g>
        </g>
    </g>
</svg>