<?xml version="1.0" encoding="UTF-8"?>
<svg width="10px" height="6px" viewBox="0 0 10 6" version="1.1" xmlns="http://www.w3.org/2000/svg" xmlns:xlink="http://www.w3.org/1999/xlink">
    <!-- Generator: Sketch 60 (88103) - https://sketch.com -->
    <title>路径备份</title>
    <desc>Created with Sketch.</desc>
    <g id="页面-1" stroke="none" stroke-width="1" fill="none" fill-rule="evenodd">
        <g id="订单详情状态" transform="translate(-236.000000, -338.000000)">
            <g id="编组-4" transform="translate(34.000000, 43.000000)">
                <path d="M8,0 L347,0 C351.418278,-2.58798134e-15 355,3.581722 355,8 L355,381 C355,385.418278 351.418278,389 347,389 L8,389 C3.581722,389 5.41083001e-16,385.418278 0,381 L0,8 C-5.41083001e-16,3.581722 3.581722,8.11624501e-16 8,0 Z" id="矩形备份-2" fill="#FFFFFF"></path>
                <g id="编组-2" transform="translate(150.000000, 290.000000)" fill="#000000" fill-opacity="0.4" fill-rule="nonzero">
                    <path d="M61.87456,5.19671153 C62.0617068,5.43298957 62.036596,5.78898517 61.8183039,5.99157621 L57.3391246,10.8640395 C57.1438295,11.0453202 56.8562715,11.0453202 56.6609763,10.8640395 L52.1817548,5.99157621 C51.9633569,5.78898517 51.938299,5.43298957 52.1254881,5.19671153 C52.3126561,4.96102831 52.6411247,4.9332208 52.8598502,5.13578895 L57.000024,9.69371051 L61.1401662,5.13578895 C61.238432,5.04437076 61.3588071,5 61.478844,5 C61.6256826,5 61.7714326,5.06680208 61.87456,5.19671153 Z" id="路径备份" transform="translate(57.000000, 8.000000) scale(1, -1) translate(-57.000000, -8.000000) "></path>
                </g>
            </g>
        </g>
    </g>
</svg>