<?xml version="1.0" encoding="UTF-8"?>
<svg width="14px" height="16px" viewBox="0 0 14 16" version="1.1" xmlns="http://www.w3.org/2000/svg" xmlns:xlink="http://www.w3.org/1999/xlink">
    <!-- Generator: Sketch 60 (88103) - https://sketch.com -->
    <title>形状</title>
    <desc>Created with Sketch.</desc>
    <defs>
        <path d="M13.75,0 L86.3500022,0 C93.9439175,0 100.100002,6.15608469 100.100002,13.75 C100.100002,21.3439153 93.9439175,27.5 86.3500022,27.5 L13.75,27.5 C6.15608469,27.5 0,21.3439153 0,13.75 C0,6.15608469 6.15608469,0 13.75,0 Z" id="path-1"></path>
    </defs>
    <g id="页面-1" stroke="none" stroke-width="1" fill="none" fill-rule="evenodd">
        <g id="订单详情待支付" transform="translate(-148.000000, -165.000000)">
            <path d="M16,149 L355,149 C359.418278,149 363,152.581722 363,157 L363,212 C363,216.418278 359.418278,220 355,220 L16,220 C11.581722,220 8,216.418278 8,212 L8,157 C8,152.581722 11.581722,149 16,149 Z" id="矩形备份-2" fill="#FFFFFF"></path>
            <g id="编组-2" transform="translate(137.000000, 159.000000)">
                <g id="矩形" transform="translate(50.050001, 13.750000) scale(1, -1) rotate(-180.000000) translate(-50.050001, -13.750000) ">
                    <use fill="#FFFFFF" xlink:href="#path-1"></use>
                    <use fill-opacity="0.24" fill="#FF9A52" xlink:href="#path-1"></use>
                </g>
                <path d="M17.6029121,12.8981749 C17.1975849,12.8981749 16.8695555,13.2114809 16.8695555,13.598013 L16.8695555,16.397212 C16.8695555,16.784005 17.1975688,17.0970194 17.6029121,17.0970194 C18.0082233,17.0970194 18.3362526,16.784005 18.3362526,16.397212 L18.3362526,13.5979976 C18.3362526,13.2114656 18.0082394,12.8981749 17.6029121,12.8981749 Z M18.3362526,9.44113908 L18.3362526,7.99961499 L20.5362259,7.99961499 C20.9415692,7.99961499 21.2695824,7.68623218 21.2695824,7.29980757 C21.2695824,6.91329084 20.9415692,6.60000014 20.5362259,6.60000014 L14.6695984,6.60000014 C14.2642712,6.60000014 13.9362579,6.91329084 13.9362579,7.29980757 C13.9362579,7.68623218 14.2641585,7.99961499 14.6695984,7.99961499 L16.8695716,7.99961499 L16.8695716,9.44057108 C13.5681559,9.78743522 11.0000002,12.4576213 11.0000002,15.7008433 C11.0000002,19.1800771 13.9548544,22.0000005 17.6000004,22.0000005 C21.2451463,22.0000005 24.2000005,19.1800618 24.2000005,15.7008279 C24.2000005,12.4595095 21.6347727,9.7905976 18.3362526,9.44115443 L18.3362526,9.44113908 Z M17.602896,20.5960258 C14.7676002,20.5960258 12.469593,18.4030063 12.469593,15.6973585 C12.469593,12.9918029 14.7676967,10.7987833 17.602896,10.7987833 C20.4380954,10.7987833 22.7361669,12.9917875 22.7361669,15.6973585 C22.7361669,18.4030063 20.4380793,20.5960258 17.602896,20.5960258 Z" id="形状" fill="#FF9A52" fill-rule="nonzero"></path>
            </g>
        </g>
    </g>
</svg>