<?xml version="1.0" encoding="UTF-8"?>
<svg width="11px" height="11px" viewBox="0 0 11 11" version="1.1" xmlns="http://www.w3.org/2000/svg" xmlns:xlink="http://www.w3.org/1999/xlink">
    <!-- Generator: Sketch 64 (93537) - https://sketch.com -->
    <title>形状</title>
    <desc>Created with Sketch.</desc>
    <g id="5.12" stroke="none" stroke-width="1" fill="none" fill-rule="evenodd">
        <g id="画板" fill="#12182B" fill-rule="nonzero">
            <path d="M5.64745236,4.31287775 C5.93729373,4.31287775 6.17244638,4.54803039 6.17245757,4.83789415 L6.17245757,4.83789415 L6.17245757,8.22510395 C6.17245757,8.51494533 5.93729373,8.75009796 5.64745236,8.75009796 C5.35759978,8.75009796 5.12244715,8.51493414 5.12244715,8.22509276 L5.12244715,8.22509276 L5.12244715,4.83788296 C5.12244715,4.54803039 5.35761098,4.31287775 5.64745236,4.31287775 Z M5.64745236,2.38776913 C6.03404933,2.38776913 6.3474481,2.7011679 6.3474481,3.08776487 C6.3474481,3.47436185 6.03404933,3.78776062 5.64745236,3.78776062 C5.26085538,3.78776062 4.94745661,3.47436185 4.94745661,3.08776487 C4.94745661,2.7011679 5.26085538,2.38776913 5.64745236,2.38776913 Z M5.54741921,0 C2.51475978,0 0.0474192064,2.46734057 0.0474192064,5.5 C0.0474192064,8.53265943 2.51475978,11 5.54741921,11 C8.58007863,11 11.0474192,8.53264843 11.0474192,5.5 C11.0474192,2.46735157 8.58006764,0 5.54741921,0 Z M5.54741921,10 C3.06620122,10 1.04741921,7.98121799 1.04741921,5.5 C1.04741921,3.01878201 3.06620122,1 5.54741921,1 C8.0286372,1 10.0474192,3.01878201 10.0474192,5.5 C10.0474192,7.98121799 8.0286372,10 5.54741921,10 Z" id="形状"></path>
        </g>
    </g>
</svg>