<?xml version="1.0" encoding="UTF-8"?>
<svg width="14px" height="14px" viewBox="0 0 14 14" version="1.1" xmlns="http://www.w3.org/2000/svg" xmlns:xlink="http://www.w3.org/1999/xlink">
    <!-- Generator: Sketch 64 (93537) - https://sketch.com -->
    <title>形状</title>
    <desc>Created with Sketch.</desc>
    <g id="页面-1" stroke="none" stroke-width="1" fill="none" fill-rule="evenodd">
        <g id="活动详情页状态" transform="translate(-349.000000, -1509.000000)" fill="#000000" fill-rule="nonzero">
            <path d="M355.999867,1509 C356.961354,1509 357.868906,1509.18345 358.721248,1509.54965 C359.573534,1509.91638 360.316675,1510.41707 360.950657,1511.05135 C361.584373,1511.67534 362.08439,1512.41386 362.450847,1513.26725 C362.816856,1514.12084 363,1515.02917 363,1515.99189 C363,1516.9658 362.816646,1517.87676 362.450847,1518.72454 C362.084404,1519.57254 361.584373,1520.31386 360.950657,1520.94849 C360.316675,1521.58315 359.573534,1522.08385 358.721248,1522.45035 C357.868906,1522.81707 356.961368,1523 355.999867,1523 C355.038156,1523 354.131038,1522.81707 353.278528,1522.45035 C352.426186,1522.08383 351.682835,1521.58314 351.049119,1520.94849 C350.415137,1520.31386 349.915163,1519.57254 349.549153,1518.72454 C349.182921,1517.87676 349,1516.9658 349,1515.99189 C349,1515.02917 349.182921,1514.12084 349.549153,1513.26725 C349.915163,1512.41386 350.415137,1511.67534 351.049119,1511.05135 C351.682835,1510.41707 352.426186,1509.91638 353.278528,1509.54965 C354.131052,1509.18345 355.038156,1509 355.999867,1509 Z M358.147512,1515.48297 C358.245814,1515.37385 358.336071,1515.25896 358.418059,1515.1383 C358.500047,1515.01798 358.568128,1514.89206 358.622946,1514.76094 C358.67733,1514.62942 358.721248,1514.49003 358.754071,1514.34224 C358.786922,1514.19448 358.80325,1514.04442 358.80325,1513.89089 C358.80325,1513.50824 358.729531,1513.14693 358.581826,1512.80769 C358.434387,1512.46879 358.234971,1512.17325 357.983549,1511.92123 C357.731946,1511.6589 357.434396,1511.45659 357.090129,1511.31404 C356.745862,1511.17219 356.382428,1511.10083 356.000105,1511.10083 C355.617334,1511.10083 355.254166,1511.17202 354.909899,1511.31404 C354.56559,1511.45659 354.267648,1511.6589 354.016479,1511.92123 C353.764833,1512.17323 353.565641,1512.46878 353.417936,1512.80769 C353.270287,1513.14695 353.196778,1513.50824 353.196778,1513.89089 L354.606486,1513.89089 C354.606486,1513.70499 354.641926,1513.52731 354.713057,1513.35751 C354.783936,1513.18806 354.885302,1513.03729 355.016414,1512.90612 C355.136458,1512.77482 355.281322,1512.67389 355.45077,1512.60253 C355.620175,1512.53139 355.803305,1512.49585 356.000091,1512.49585 C356.196709,1512.49585 356.379615,1512.53156 356.549244,1512.60253 C356.718468,1512.67389 356.863276,1512.77482 356.983544,1512.90612 C357.114712,1513.03729 357.215588,1513.18806 357.286733,1513.35751 C357.357822,1513.52731 357.393528,1513.70498 357.393528,1513.89089 C357.393528,1513.9895 357.385259,1514.08536 357.368721,1514.17821 C357.352408,1514.27127 357.327811,1514.35624 357.295002,1514.4325 C357.251293,1514.52031 357.204745,1514.60247 357.155566,1514.67874 C357.106653,1514.75552 357.049247,1514.82124 356.983544,1514.87566 L356.114721,1515.76211 C355.994229,1515.89345 355.882453,1516.03297 355.778723,1516.18058 C355.674768,1516.32816 355.590164,1516.48996 355.524713,1516.66466 C355.447929,1516.82886 355.390747,1517.0011 355.352468,1517.18176 C355.313964,1517.36224 355.29502,1517.55112 355.29502,1517.74787 L355.29502,1518.09273 L356.704952,1518.09273 C356.704952,1517.83005 356.723896,1517.60306 356.7624,1517.41155 C356.800456,1517.22027 356.852433,1517.05322 356.917884,1516.9109 C356.994444,1516.75786 357.08186,1516.61833 357.180386,1516.49242 C357.278688,1516.36668 357.393542,1516.24356 357.524653,1516.12325 L358.147512,1515.48297 L358.147512,1515.48297 Z M356.704952,1520.89935 L356.704952,1519.50402 L355.29502,1519.50402 L355.29502,1520.89935 L356.704952,1520.89935 Z" id="形状"></path>
        </g>
    </g>
</svg>