<?xml version="1.0" encoding="UTF-8"?>
<svg width="13px" height="13px" viewBox="0 0 13 13" version="1.1" xmlns="http://www.w3.org/2000/svg" xmlns:xlink="http://www.w3.org/1999/xlink">
    <!-- Generator: Sketch 64 (93537) - https://sketch.com -->
    <title>形状</title>
    <desc>Created with Sketch.</desc>
    <g id="5.12" stroke="none" stroke-width="1" fill="none" fill-rule="evenodd">
        <g id="商详-优惠明细" transform="translate(-57.000000, -699.000000)" fill="#E29A4F" fill-rule="nonzero">
            <g id="编组-14" transform="translate(56.500000, 699.000000)">
                <g id="编组">
                    <path d="M6.56666667,0 C6.97111111,0 8.99333333,0.751111111 12.6333333,2.25333333 C12.3581869,7.92334395 10.4056564,11.4766773 6.77574158,12.9133333 L6.56666667,13 L6.35131077,12.9133333 C2.63800225,11.256512 0.687565326,7.70317864 0.5,2.25333333 C4.14,0.751111111 6.16222222,0 6.56666667,0 Z M5.6980417,7.87595969 L4.05029429,6.69899725 C3.70546096,6.43544121 3.19740575,6.86489451 3.57950932,7.28747847 L5.6980417,9.64140334 C5.82102729,9.78116508 6.00837446,9.80939482 6.16882668,9.64140334 L10.5235877,4.34507238 C10.7818621,4.05793977 10.322686,3.57906826 10.0528027,3.8742874 L6.05113043,7.87595969 C5.93343419,7.99365593 5.81573794,7.99365593 5.6980417,7.87595969 Z" id="形状"></path>
                </g>
            </g>
        </g>
    </g>
</svg>