<svg height="30" viewBox="0 0 30 30" width="30" xmlns="http://www.w3.org/2000/svg" xmlns:xlink="http://www.w3.org/1999/xlink"><radialGradient id="a" cx="95.100536%" cy="87.571665%" r="139.490169%"><stop offset="0" stop-color="#a67c38"/><stop offset="1" stop-color="#fff5db"/></radialGradient><g fill="none"><circle cx="15" cy="15" fill="url(#a)" r="15"/><path d="m16.2149678 5.37433262c-.5503407-.49911016-1.3897118-.49911016-1.9400525 0l-7.8448737 7.44747138c-.29234548.2685608-.31369929.7224588-.04785781 1.0172688.26584148.2948099.71961211.3204489 1.01698342.0574615l.1247434-.1184139v7.7729972c-.00047814.3841018.15180253.7526354.42329147 1.0244055.27148893.27177.63990989.4244769 1.02409222.4244769h4.2120036v-4.3565525c-.0003587-.2705411.1069153-.5301178.2981724-.7215039.1912571-.191386.4507932-.2988668.721391-.298747h1.9819339c.2705979-.0001198.530134.107361.7213911.298747.1912571.1913861.2985311.4509628.2981723.7215039v4.3565525h4.3119785c.3842604 0 .7527971-.1525346 1.0243835-.4243176s.4239288-.640385.4234506-1.0245648v-7.6779959c.3215407.2908571.7777323.2687951 1.0452326-.0292658.1286591-.1424464.1954379-.3301647.1856408-.5218449-.0097972-.1916802-.0953675-.3716149-.23788-.500207l-7.7421968-7.44702114z" fill="#12182b" transform="matrix(-1 0 0 1 30.391978 0)"/></g></svg>