<svg height="20" viewBox="0 0 20 20" width="20" xmlns="http://www.w3.org/2000/svg"><path d="m62.6846784 23.3992881c-.5869075-.5323841-1.4820495-.5323841-2.068957 0l-8.366117 7.943969c-.31177.2864649-.3345426.7706227-.0510376 1.0850866.283505.314464.7674259.3418122 1.0845557.0612924l.1330318-.1263082v8.2911965c-.0005099.4097085.1618889.8028111.4514165 1.0926991.2895277.289888.682428.4527754 1.0921369.4527754h4.4918652v-4.6469891c-.0003826-.2885771.114019-.565459.317984-.7696041.2039649-.2041451.4807456-.3187912.769323-.3186634h2.1136212c.2885774-.0001278.5653581.1145183.769323.3186634s.3183666.481027.317984.7696041v4.6469891h4.5984828c.4097921 0 .8028158-.1627036 1.0924474-.4526055.2896316-.2899018.4520962-.6830773.4515862-1.092869v-8.1898618c.3429052.3102475.8294078.2867148 1.1146818-.0312169.1372078-.1519428.2084236-.3521756.1979755-.5566345s-.101704-.3963892-.2536855-.5335541l-8.2566179-7.9434887z" fill="#bcbcbc" transform="matrix(-1 0 0 1 71.195988 -23)"/></svg>