<?xml version="1.0" encoding="UTF-8"?>
<svg width="30px" height="30px" viewBox="0 0 30 30" version="1.1" xmlns="http://www.w3.org/2000/svg" xmlns:xlink="http://www.w3.org/1999/xlink">
    <!-- Generator: Sketch 61.2 (89653) - https://sketch.com -->
    <title>Group 4</title>
    <desc>Created with Sketch.</desc>
    <defs>
        <radialGradient cx="95.1005363%" cy="87.5716654%" fx="95.1005363%" fy="87.5716654%" r="139.490169%" id="radialGradient-1">
            <stop stop-color="#A67C38" offset="0%"></stop>
            <stop stop-color="#FFF5DB" offset="100%"></stop>
        </radialGradient>
        <path d="M15.115362,-1.42108547e-12 C16.7845122,-1.42108547e-12 18.3558209,0.88030687 19.1150986,2.39950765 L19.1150986,2.39950765 L21.4426085,6.61612889 C22.3600709,8.25105347 22.1345936,10.2295592 20.8554153,11.6135172 L20.8554153,11.6135172 L20.6855274,11.786 L14.5907112,18.4635498 C12.6244502,20.5137731 9.27391942,20.5135712 7.35414181,18.5099882 L7.35414181,18.5099882 L1.09902546,11.6659289 C-0.139087479,10.2583844 -0.34441277,8.25355775 0.550760123,6.63579111 L0.550760123,6.63579111 L2.99283037,2.20499844 C3.78594591,0.805455978 5.29992533,-1.42108547e-12 6.88894358,-1.42108547e-12 L6.88894358,-1.42108547e-12 Z M14.0005274,4 L8.00052737,4 C7.44824262,4 7.00052737,4.44771525 7.00052737,5 C7.00052737,5.55228475 7.44824262,6 8.00052737,6 L8.00052737,6 L14.0005274,6 C14.5528121,6 15.0005274,5.55228475 15.0005274,5 C15.0005274,4.44771525 14.5528121,4 14.0005274,4 L14.0005274,4 Z" id="path-2"></path>
    </defs>
    <g id="5.12" stroke="none" stroke-width="1" fill="none" fill-rule="evenodd">
        <g id="蜜蜂会员-首页备份-2" transform="translate(-110.000000, -875.000000)">
            <g id="编组-2备份" transform="translate(0.000000, 845.000000)">
                <g id="Group" transform="translate(47.000000, 3.000000)">
                    <g id="Group-4" transform="translate(63.000000, 27.000000)">
                        <circle id="椭圆形" fill="url(#radialGradient-1)" fill-rule="nonzero" cx="15" cy="15" r="15"></circle>
                        <g id="Group-3" transform="translate(4.000000, 6.000000)">
                            <g id="矩形备份-3" transform="translate(-0.000000, 0.000000)">
                                <g transform="translate(-0.000000, 0.000000)">
                                    <mask id="mask-3" fill="white">
                                        <use xlink:href="#path-2"></use>
                                    </mask>
                                    <use id="Combined-Shape" fill="#12182B" fill-rule="nonzero" xlink:href="#path-2"></use>
                                </g>
                            </g>
                        </g>
                    </g>
                </g>
            </g>
        </g>
    </g>
</svg>