<svg height="30" viewBox="0 0 30 30" width="30" xmlns="http://www.w3.org/2000/svg" xmlns:xlink="http://www.w3.org/1999/xlink"><radialGradient id="a" cx="95.100536%" cy="87.571665%" r="139.490169%"><stop offset="0" stop-color="#a67c38"/><stop offset="1" stop-color="#fff5db"/></radialGradient><g fill="none"><circle cx="15" cy="15" fill="url(#a)" r="15"/><g fill="#050505" transform="translate(6.5 6.5)"><path d="m.53135056 12.1336519c-.22510501.5583877-.24857002.9942801-.03380552 1.2589575.80755427.99428 4.67709342-.8129234 8.64307773-4.03518624 3.96598433-3.22226283 6.52665323-6.64039883 5.71909893-7.63408234-.1483466-.18254982-.3998994-.27064303-.7357672-.27283044"/><path d="m15.715193 4.02245943c-1.081379 2.26119172-2.9703123 4.63672565-5.487034 6.68156207-2.47893903 2.0144114-5.14738788 3.3648425-7.55374449 3.9741374 1.52184507 1.4357404 3.56807344 2.3218428 5.82648118 2.3218428 4.69439391 0 8.49990141-3.8057064 8.49990141-8.50010029-.0004245-1.58347414-.4458984-3.13494995-1.2856041-4.47744198z"/><path d="m8.49990141 0c-4.69439389 0-8.49990141 3.80570637-8.49990141 8.49990141 0 1.70189169.50381072 3.28360029 1.36661439 4.61145549.22063926.3395639 4.99437507-2.1871748 7.5399309-4.25567506 2.58274191-2.09812978 5.90596261-6.04446353 5.66896021-6.28763219-1.5420262-1.58214597-3.6914599-2.56804965-6.07560409-2.56804965zm1.00004688 4.50011158c-.60679822.00008041-1.15388816-.36539474-1.38613693-.9259878-.23224878-.56059307-.10391326-1.20589105.32515788-1.63496218.42907114-.42907114 1.07436912-.55740665 1.63496216-.32515787.5605931.23224878.9260682.77933873.9259878 1.38613694 0 .82841105-.6715599 1.49997091-1.49997091 1.49997091z"/></g></g></svg>