<svg height="30" viewBox="0 0 30 30" width="30" xmlns="http://www.w3.org/2000/svg" xmlns:xlink="http://www.w3.org/1999/xlink"><radialGradient id="a" cx="95.100536%" cy="87.571665%" r="139.490169%"><stop offset="0" stop-color="#a67c38"/><stop offset="1" stop-color="#fff5db"/></radialGradient><g fill="none" fill-rule="nonzero"><circle cx="15" cy="15" fill="url(#a)" r="15"/><path d="m15.115362 0c1.6691502 0 3.2404589.88030687 3.9997366 2.39950765l2.3275099 4.21662124c.9174624 1.63492458.6919851 3.61343031-.5871932 4.99738831l-.1698879.1724828-6.0948162 6.6775498c-1.966261 2.0502233-5.31679178 2.0500214-7.23656939.0464384l-6.25511635-6.8440593c-1.23811294-1.4075445-1.44343823-3.41237115-.54826534-5.03013779l2.44207025-4.43079267c.79311554-1.39954246 2.30709496-2.20499844 3.89611321-2.20499844zm-1.1148346 4h-6.00000003c-.55228475 0-1 .44771525-1 1s.44771525 1 1 1h6.00000003c.5522847 0 1-.44771525 1-1s-.4477153-1-1-1z" fill="#12182b" transform="translate(4 6)"/></g></svg>