<svg height="21" viewBox="0 0 20 21" width="20" xmlns="http://www.w3.org/2000/svg"><g fill="#bcbcbc" transform="translate(.078939 .578939)"><path d="m.61523961 14.0492999c-.26064434.6465453-.28781399 1.1512559-.03914269 1.4577202.93505006 1.151256 5.4155079-.9412668 10.00763758-4.672257 4.5921296-3.73099025 7.5570741-7.68877788 6.6220241-8.83934309-.1717674-.21137059-.4630352-.31337186-.8519294-.31590461"/><path d="m18.1962907 4.657521c-1.2521059 2.61818624-3.4392619 5.3687669-6.3533209 7.7364398-2.87031132 2.3324446-5.96005199 3.8960804-8.7463216 4.60157 1.76211233 1.6624136 4.13139704 2.6884129 6.74635976 2.6884129 5.43553974 0 9.84185674-4.4065472 9.84185674-9.842087-.0004915-1.83347133-.5162964-3.62989247-1.488574-5.1843357z"/><path d="m9.8418567 0c-5.43553975 0-9.8418567 4.4065472-9.8418567 9.8418567 0 1.9705845.58335181 3.8020116 1.582374 5.3395072.25547355.3931738 5.78288163-2.5324837 8.7303271-4.9275565 2.9905024-2.42938029 6.8383896-6.99875697 6.5639695-7.28031683-1.7854796-1.83193348-4.2742636-2.97349057-7.0348139-2.97349057zm1.1579332 5.21058435c-.7025989.00009311-1.33606277-.42308286-1.60497873-1.07218176-.26891597-.64909889-.12031897-1.39627582.37649346-1.89308825.49681247-.49681242 1.24398937-.64540941 1.89308827-.37649344s1.0722748.90237989 1.0721817 1.60497875c0 .9591997-.777585 1.7367847-1.7367847 1.7367847z"/></g></svg>