<?xml version="1.0" encoding="UTF-8"?>
<svg width="22px" height="20px" viewBox="0 0 22 20" version="1.1" xmlns="http://www.w3.org/2000/svg" xmlns:xlink="http://www.w3.org/1999/xlink">
    <!-- Generator: Sketch 61.2 (89653) - https://sketch.com -->
    <title>Group 2</title>
    <desc>Created with Sketch.</desc>
    <g id="5.12" stroke="none" stroke-width="1" fill="none" fill-rule="evenodd">
        <g id="蜜蜂会员-首页备份-2" transform="translate(-176.000000, -867.000000)">
            <g id="编组-2备份" transform="translate(0.000000, 845.000000)">
                <g id="Group-2" transform="translate(176.000000, 22.000000)">
                    <path d="M15.115362,1.42108547e-13 L6.88894358,1.42108547e-13 C5.29992533,1.42108547e-13 3.78594591,0.805455978 2.99283037,2.20499844 L0.550760123,6.63579111 C-0.34441277,8.25355775 -0.139087479,10.2583844 1.09902546,11.6659289 L7.35414181,18.5099882 C9.27391942,20.5135712 12.6244502,20.5137731 14.5907112,18.4635498 L20.6855274,11.786 L20.8554153,11.6135172 C22.1345936,10.2295592 22.3600709,8.25105347 21.4426085,6.61612889 L19.1150986,2.39950765 C18.3558209,0.88030687 16.7845122,1.42108547e-13 15.115362,1.42108547e-13 Z" id="路径备份-2" fill="#BCBCBC" fill-rule="nonzero"></path>
                    <rect id="矩形备份-3" fill="#FFFFFF" x="7.00052737" y="4" width="8" height="2" rx="1"></rect>
                </g>
            </g>
        </g>
    </g>
</svg>