<svg height="30" viewBox="0 0 30 30" width="30" xmlns="http://www.w3.org/2000/svg" xmlns:xlink="http://www.w3.org/1999/xlink"><radialGradient id="a" cx="95.100536%" cy="87.571665%" r="139.490169%"><stop offset="0" stop-color="#a67c38"/><stop offset="1" stop-color="#fff5db"/></radialGradient><g fill="none"><circle cx="15" cy="15" fill="url(#a)" r="15"/><path d="m19.6000001 7c1.3254834 0 2.3999999 1.07451654 2.3999999 2.39999986v11.20000024c0 1.3254834-1.0745165 2.3999999-2.3999999 2.3999999h-9.2000002c-1.32548336 0-2.3999999-1.0745165-2.3999999-2.3999999v-11.20000024c0-1.32548332 1.07451654-2.39999986 2.3999999-2.39999986zm-2.2888889 9.9999994h-4.6222224c-.4418277 0-.7999999.3581722-.7999999.8 0 .4418277.3581722.7999999.7999999.7999999h4.6222224c.4418277 0 .7999999-.3581722.7999999-.7999999 0-.4418278-.3581722-.8-.7999999-.8z" fill="#050505"/></g></svg>