<?xml version="1.0" encoding="UTF-8"?>
<svg width="20px" height="21px" viewBox="0 0 20 21" version="1.1" xmlns="http://www.w3.org/2000/svg" xmlns:xlink="http://www.w3.org/1999/xlink">
    <!-- Generator: Sketch 61.2 (89653) - https://sketch.com -->
    <title>My_icon</title>
    <desc>Created with Sketch.</desc>
    <g id="5.12" stroke="none" stroke-width="1" fill="none" fill-rule="evenodd">
        <g id="蜜蜂会员-首页备份-2" transform="translate(-302.000000, -866.000000)" fill="#BCBCBC" fill-rule="nonzero">
            <g id="编组-2备份" transform="translate(0.000000, 845.000000)">
                <path d="M317.731228,32.9263158 C320.088609,32.9263158 322,34.8681854 322,37.2631579 L322,37.8830624 C322,39.936963 320.360615,41.6 318.341403,41.6 L306.14281,41.6 C304.121147,41.6 302.484211,39.9344734 302.484211,37.8830624 L302.484211,37.2631579 C302.481762,34.8681854 304.393153,32.9263158 306.752985,32.9263158 L317.731228,32.9263158 Z M312.242105,21 C315.23607,21 317.663158,23.4270879 317.663158,26.4210526 C317.663158,29.4150173 315.23607,31.8421053 312.242105,31.8421053 C309.248141,31.8421053 306.821053,29.4150173 306.821053,26.4210526 C306.821053,23.4270879 309.248141,21 312.242105,21 Z" id="My_icon"></path>
            </g>
        </g>
    </g>
</svg>