<svg height="30" viewBox="0 0 30 30" width="30" xmlns="http://www.w3.org/2000/svg" xmlns:xlink="http://www.w3.org/1999/xlink"><radialGradient id="a" cx="95.100536%" cy="87.571665%" r="139.490169%"><stop offset="0" stop-color="#a67c38"/><stop offset="1" stop-color="#fff5db"/></radialGradient><g fill="none"><circle cx="15" cy="15" fill="url(#a)" r="15"/><path d="m7.99999807 8.94736842c2.45459833 0 4.44444333-2.00293664 4.44444333-4.47368421 0-2.47074756-1.989845-4.47368421-4.44444333-4.47368421-2.45459829 0-4.44444337 2.00293665-4.44444337 4.47368421 0 2.47074757 1.98984508 4.47368421 4.44444337 4.47368421zm-4.50024754 1.09445488h9.00049657c1.932696 0 3.4997548 1.5578008 3.4997548 3.4790884v.4972979c0 1.6476739-1.3440555 2.9817904-2.999504 2.9817904h-10.00099819c-1.65745752 0-2.99949778-1.3361137-2.99949778-2.9817904v-.4972979c-.00200711-1.9212876 1.56504363-3.4790884 3.4997486-3.4790884z" fill="#050505" transform="translate(7 6)"/></g></svg>